<svg width="17" height="16" viewBox="0 0 17 16" fill="none" xmlns="http://www.w3.org/2000/svg">
<path fill-rule="evenodd" clip-rule="evenodd" d="M8.8 0C6.59 0 4.8 1.79 4.8 4C4.8 6.21 6.59 8 8.8 8C11.01 8 12.8 6.21 12.8 4C12.8 1.79 11.01 0 8.8 0ZM10.8 4C10.8 2.9 9.9 2 8.8 2C7.7 2 6.8 2.9 6.8 4C6.8 5.1 7.7 6 8.8 6C9.9 6 10.8 5.1 10.8 4ZM14.8 13C14.6 12.29 11.5 11 8.8 11C6.1 11 3 12.29 2.8 13.01V14H14.8V13ZM0.800003 13C0.800003 10.34 6.13 9 8.8 9C11.47 9 16.8 10.34 16.8 13V16H0.800003V13Z" fill="#49454F"/>
</svg>
