<svg width="18" height="19" viewBox="0 0 18 19" fill="none" xmlns="http://www.w3.org/2000/svg">
<path fill-rule="evenodd" clip-rule="evenodd" d="M11.76 10.8453L17.49 16.5753L16 18.0653L10.27 12.3353C9.2 13.1053 7.91 13.5753 6.5 13.5753C2.91 13.5753 0 10.6653 0 7.07532C0 3.48532 2.91 0.575317 6.5 0.575317C10.09 0.575317 13 3.48532 13 7.07532C13 8.48532 12.53 9.77532 11.76 10.8453ZM6.5 2.57532C4.01 2.57532 2 4.58532 2 7.07532C2 9.56532 4.01 11.5753 6.5 11.5753C8.99 11.5753 11 9.56532 11 7.07532C11 4.58532 8.99 2.57532 6.5 2.57532Z" fill="#49454F"/>
</svg>
