<svg width="88" height="56" viewBox="0 0 88 56" fill="none" xmlns="http://www.w3.org/2000/svg">
<path d="M10.3724 7.592V4.936H3.50838V17H10.3724V14.344H6.64438V12.264H10.1804V9.608H6.64438V7.592H10.3724ZM12.3053 17H15.4413V9.608H15.4733L21.2173 17H24.3533V4.936H21.2173V12.312H21.1853L15.4413 4.936H12.3053V17ZM35.023 5.224C34.095 4.84 33.167 4.616 32.159 4.616C30.463 4.616 28.751 5.352 27.567 6.568C26.415 7.752 25.791 9.336 25.791 10.984C25.791 12.776 26.399 14.344 27.727 15.544C28.975 16.68 30.575 17.32 32.255 17.32C33.231 17.32 33.983 17.08 35.023 16.76V13C34.367 13.784 33.343 14.28 32.319 14.28C30.367 14.28 29.055 12.904 29.055 11C29.055 9.128 30.351 7.656 32.271 7.656C33.343 7.656 34.383 8.12 35.023 8.984V5.224ZM40.0975 9.592V4.936H36.9615V17H40.0975V12.056H44.6255V17H47.7615V4.936H44.6255V9.592H40.0975ZM56.6693 7.592V4.936H49.8053V17H56.6693V14.344H52.9413V12.264H56.4773V9.608H52.9413V7.592H56.6693ZM55.1973 1.784L53.4213 0.504L51.1653 3.256L52.4613 4.2L55.1973 1.784ZM64.8421 12.056C66.5541 11.752 67.4821 10.312 67.4821 8.648C67.4821 6.072 65.6741 4.936 63.2901 4.936H58.6021V17H61.7381V12.36H61.7701L64.7301 17H68.6341L64.8421 12.056ZM61.7381 7.336H62.0421C63.0661 7.336 64.2181 7.528 64.2181 8.84C64.2181 10.152 63.0661 10.344 62.0421 10.344H61.7381V7.336ZM72.6131 4.936H69.4771V17H72.6131V4.936ZM80.9046 12.056C82.6166 11.752 83.5446 10.312 83.5446 8.648C83.5446 6.072 81.7366 4.936 79.3526 4.936H74.6646V17H77.8006V12.36H77.8326L80.7926 17H84.6966L80.9046 12.056ZM77.8006 7.336H78.1046C79.1286 7.336 80.2806 7.528 80.2806 8.84C80.2806 10.152 79.1286 10.344 78.1046 10.344H77.8006V7.336ZM1.14994 30.272H2.50994C3.45394 30.272 4.46194 30.144 5.19794 29.504C5.86994 28.944 6.20594 27.984 6.20594 27.12C6.20594 26.176 5.85394 25.264 5.11794 24.64C4.36594 24 3.45394 23.936 2.50994 23.936H0.381938V36H1.14994V30.272ZM1.14994 29.552V24.656H2.41394C3.14994 24.656 3.91794 24.672 4.52594 25.136C5.13394 25.584 5.43794 26.336 5.43794 27.088C5.43794 27.792 5.18194 28.416 4.65394 28.896C4.02994 29.456 3.32594 29.552 2.54194 29.552H1.14994ZM13.4648 23.776C10.0568 23.776 7.20881 26.576 7.20881 29.968C7.20881 33.36 10.0728 36.16 13.4648 36.16C16.8568 36.16 19.7208 33.36 19.7208 29.968C19.7208 26.576 16.8568 23.776 13.4648 23.776ZM13.4648 24.496C16.4568 24.496 18.9528 26.992 18.9528 29.968C18.9528 32.928 16.4568 35.44 13.4648 35.44C10.4568 35.44 7.97681 32.944 7.97681 29.968C7.97681 26.992 10.4568 24.496 13.4648 24.496ZM28.8971 31.232C28.8971 32.32 28.8971 33.472 28.2731 34.272C27.6811 35.04 26.4971 35.44 25.5691 35.44C24.6411 35.44 23.4571 35.04 22.8651 34.272C22.2411 33.472 22.2411 32.32 22.2411 31.232V23.936H21.4731V31.456C21.4731 32.688 21.4731 33.744 22.2891 34.752C23.1051 35.68 24.3531 36.16 25.5691 36.16C26.7851 36.16 28.0331 35.68 28.8491 34.752C29.6651 33.744 29.6651 32.688 29.6651 31.456V23.936H28.8971V31.232ZM34.1636 30.288C36.1636 30.32 37.6196 29.232 37.6196 27.136C37.6196 26.112 37.2676 25.152 36.4036 24.544C35.5876 23.952 34.6276 23.936 33.6516 23.936H32.1476V36H32.9156V30.288H33.2996L37.2356 36H38.1156L34.1636 30.288ZM32.9156 29.568V24.656H33.4116C34.1156 24.656 34.9316 24.624 35.5716 24.928C36.4356 25.312 36.8516 26.208 36.8516 27.104C36.8516 27.824 36.5796 28.544 36.0036 29.008C35.3956 29.536 34.6436 29.568 33.8916 29.568H32.9156ZM57.0892 36H57.8252L55.2332 23.536L50.7852 34.512L46.3532 23.536L43.7612 36H44.4972L46.5612 26.016H46.5932L50.7852 36.4L54.9932 26.016H55.0252L57.0892 36ZM60.0406 23.936H59.2726V36H60.0406V23.936ZM68.3919 24.656V23.936H62.6319V36H68.3919V35.28H63.3999V29.76H68.2639V29.04H63.3999V24.656H68.3919ZM78.0533 31.232C78.0533 32.32 78.0533 33.472 77.4293 34.272C76.8373 35.04 75.6533 35.44 74.7253 35.44C73.7973 35.44 72.6133 35.04 72.0213 34.272C71.3973 33.472 71.3973 32.32 71.3973 31.232V23.936H70.6293V31.456C70.6293 32.688 70.6293 33.744 71.4453 34.752C72.2613 35.68 73.5093 36.16 74.7253 36.16C75.9413 36.16 77.1893 35.68 78.0053 34.752C78.8213 33.744 78.8213 32.688 78.8213 31.456V23.936H78.0533V31.232ZM83.4958 29.84L80.1998 36H81.0318L83.9438 30.544L86.8878 36H87.7198L84.4078 29.84L87.5598 23.936H86.7118L83.9438 29.12L81.1758 23.936H80.3278L83.4958 29.84ZM7.48494 55H11.9329C15.2769 55 18.0609 52.36 18.0609 48.968C18.0609 45.576 15.2929 42.936 11.9329 42.936H7.48494V55ZM10.6209 45.592H11.3569C13.3729 45.592 14.7969 46.808 14.7969 48.968C14.7969 51.32 13.1969 52.344 11.3249 52.344H10.6209V45.592ZM25.5802 42.536C22.1082 42.536 18.9082 45.096 18.9082 48.744C18.9082 52.648 21.7082 55.4 25.5802 55.4C29.4522 55.4 32.2522 52.648 32.2522 48.744C32.2522 45.096 29.0522 42.536 25.5802 42.536ZM25.5802 45.576C27.4522 45.576 28.9882 47.096 28.9882 48.76C28.9882 50.84 27.4522 52.36 25.5802 52.36C23.7082 52.36 22.1722 50.84 22.1722 48.76C22.1722 47.096 23.7082 45.576 25.5802 45.576ZM33.7037 55H36.8397V47.608H36.8717L42.6157 55H45.7517V42.936H42.6157V50.312H42.5837L36.8397 42.936H33.7037V55ZM47.7974 55H50.9334V47.608H50.9654L56.7094 55H59.8454V42.936H56.7094V50.312H56.6774L50.9334 42.936H47.7974V55ZM68.7552 45.592V42.936H61.8912V55H68.7552V52.344H65.0272V50.264H68.5632V47.608H65.0272V45.592H68.7552ZM76.9281 50.056C78.6401 49.752 79.5681 48.312 79.5681 46.648C79.5681 44.072 77.7601 42.936 75.3761 42.936H70.6881V55H73.8241V50.36H73.8561L76.8161 55H80.7201L76.9281 50.056ZM73.8241 45.336H74.1281C75.1521 45.336 76.3041 45.528 76.3041 46.84C76.3041 48.152 75.1521 48.344 74.1281 48.344H73.8241V45.336Z" fill="white"/>
</svg>
