<svg width="18" height="18" viewBox="0 0 18 18" fill="none" xmlns="http://www.w3.org/2000/svg">
<g clip-path="url(#clip0_53007_453)">
<path d="M11.25 13.875C9.3675 13.875 7.74 12.81 6.93 11.25H11.25V9.75H6.435C6.3975 9.5025 6.375 9.255 6.375 9C6.375 8.745 6.3975 8.4975 6.435 8.25H11.25V6.75H6.93C7.74 5.19 9.375 4.125 11.25 4.125C12.4575 4.125 13.5675 4.5675 14.4225 5.3025L15.75 3.975C14.5575 2.9025 12.975 2.25 11.25 2.25C8.31 2.25 5.82 4.1325 4.89 6.75H2.25V8.25H4.545C4.515 8.4975 4.5 8.745 4.5 9C4.5 9.255 4.515 9.5025 4.545 9.75H2.25V11.25H4.89C5.82 13.8675 8.31 15.75 11.25 15.75C12.9825 15.75 14.5575 15.0975 15.75 14.025L14.415 12.6975C13.5675 13.4325 12.465 13.875 11.25 13.875Z" fill="#6750A4"/>
</g>
<defs>
<clipPath id="clip0_53007_453">
<rect width="18" height="18" fill="white"/>
</clipPath>
</defs>
</svg>
