<svg width="20" height="19" viewBox="0 0 20 19" fill="none" xmlns="http://www.w3.org/2000/svg">
<path d="M14.5 0.575317C12.76 0.575317 11.09 1.38532 10 2.66532C8.91 1.38532 7.24 0.575317 5.5 0.575317C2.42 0.575317 0 2.99532 0 6.07532C0 9.85532 3.4 12.9353 8.55 17.6153L10 18.9253L11.45 17.6053C16.6 12.9353 20 9.85532 20 6.07532C20 2.99532 17.58 0.575317 14.5 0.575317ZM10.1 16.1253L10 16.2253L9.9 16.1253C5.14 11.8153 2 8.96532 2 6.07532C2 4.07532 3.5 2.57532 5.5 2.57532C7.04 2.57532 8.54 3.56532 9.07 4.93532H10.94C11.46 3.56532 12.96 2.57532 14.5 2.57532C16.5 2.57532 18 4.07532 18 6.07532C18 8.96532 14.86 11.8153 10.1 16.1253Z" fill="#B3261E"/>
</svg>
