<svg width="48" height="48" viewBox="0 0 48 48" fill="none" xmlns="http://www.w3.org/2000/svg">
<g clip-path="url(#clip0_52826_25735)">
<rect width="40" height="40" transform="translate(4 4)" fill="#49454F" fill-opacity="0.08"/>
<path d="M30.92 17.01C30.72 16.42 30.16 16 29.5 16H18.5C17.84 16 17.29 16.42 17.08 17.01L15 23V31C15 31.55 15.45 32 16 32H17C17.55 32 18 31.55 18 31V30H30V31C30 31.55 30.45 32 31 32H32C32.55 32 33 31.55 33 31V23L30.92 17.01ZM18.85 18H29.14L30.22 21.11H17.77L18.85 18ZM31 28H17V23H31V28Z" fill="#49454F"/>
<path d="M19.5 27C20.3284 27 21 26.3284 21 25.5C21 24.6716 20.3284 24 19.5 24C18.6716 24 18 24.6716 18 25.5C18 26.3284 18.6716 27 19.5 27Z" fill="#49454F"/>
<path d="M28.5 27C29.3284 27 30 26.3284 30 25.5C30 24.6716 29.3284 24 28.5 24C27.6716 24 27 24.6716 27 25.5C27 26.3284 27.6716 27 28.5 27Z" fill="#49454F"/>
</g>
<defs>
<clipPath id="clip0_52826_25735">
<rect x="4" y="4" width="40" height="40" rx="20" fill="white"/>
</clipPath>
</defs>
</svg>
