<svg width="176" height="161" viewBox="0 0 176 161" fill="none" xmlns="http://www.w3.org/2000/svg">
<path d="M169.2 69.1385L174.072 63.4308L170.164 60.2539L165.987 65.1539L158.759 55.8924C161.971 53.4693 165.184 50.9385 165.184 46.3077C165.184 41.8385 161.436 38.2847 156.617 38.2847C151.53 38.2847 147.836 41.8924 147.836 46.9001C147.836 49.9693 149.656 52.5001 151.316 54.7077L151.37 54.8154C146.711 57.9385 141.892 61.1154 141.892 67.7385C141.892 73.7693 147.086 78.6693 153.458 78.6693C158.223 78.6693 162.186 75.8154 165.452 72.9077L169.307 78.0231H176L169.2 69.1385ZM147.086 67.4154C147.086 63.8616 150.245 61.6539 153.083 59.7154L154.529 58.7462L162.346 68.8154C159.83 71.0231 156.671 73.7154 153.244 73.7154C149.977 73.7154 147.086 70.7001 147.086 67.4154ZM155.171 51.0462C155.011 50.8308 154.85 50.6154 154.689 50.4001C153.779 49.1616 152.976 47.977 152.976 46.5231C152.976 44.477 154.582 42.8616 156.617 42.8616C158.652 42.8616 160.204 44.3154 160.204 46.2001C160.204 48.5693 158.437 49.9154 156.563 51.3154C156.296 51.477 156.082 51.6924 155.814 51.8539L155.171 51.0462Z" fill="white"/>
<path d="M85.1354 38.7693H79.2455V78.6154H85.1354V38.7693Z" fill="white"/>
<path d="M54.0797 82.3846H48.1898V122.231H54.0797V82.3846Z" fill="white"/>
<path d="M50.8671 78.6154C61.7901 78.6154 70.6784 69.6769 70.6784 58.6923C70.6784 47.7077 61.7901 38.7692 50.8671 38.7692C45.6197 38.7692 40.6401 40.8692 36.9455 44.5308V0H31.0557V58.6923C31.0557 69.6769 39.944 78.6154 50.8671 78.6154ZM50.8671 44.6923C58.5239 44.6923 64.7886 50.9923 64.7886 58.6923C64.7886 66.3923 58.5239 72.6923 50.8671 72.6923C43.2102 72.6923 36.9455 66.3923 36.9455 58.6923C36.9455 50.9923 43.2102 44.6923 50.8671 44.6923Z" fill="white"/>
<path d="M113.514 78.6154C124.437 78.6154 133.325 69.6769 133.325 58.6923V0H127.435V44.5308C123.741 40.8692 118.761 38.7692 113.514 38.7692C102.591 38.7692 93.7025 47.7077 93.7025 58.6923C93.7025 69.6769 102.591 78.6154 113.514 78.6154ZM113.514 44.6923C121.171 44.6923 127.435 50.9923 127.435 58.6923C127.435 66.3923 121.171 72.6923 113.514 72.6923C105.857 72.6923 99.5923 66.3923 99.5923 58.6923C99.5923 50.9923 105.857 44.6923 113.514 44.6923Z" fill="white"/>
<path d="M121.01 82.3846C110.087 82.3846 101.199 91.3231 101.199 102.308C101.199 113.292 110.087 122.231 121.01 122.231C130.059 122.231 137.93 116.092 140.179 107.262L140.34 106.615H134.235L134.128 106.992C132.201 112.538 126.9 116.308 121.01 116.308C113.514 116.308 107.356 110.331 107.089 102.846H140.821V102.308C140.821 91.3231 131.933 82.3846 121.01 82.3846ZM108.159 96.9231C110.301 91.7539 115.388 88.3077 121.01 88.3077C126.632 88.3077 131.719 91.7539 133.861 96.9231H108.159Z" fill="white"/>
<path d="M19.8114 82.3846C8.88835 82.3846 0 91.3231 0 102.308C0 113.292 8.88835 122.231 19.8114 122.231C25.0587 122.231 30.0383 120.131 33.7329 116.469V141.077C33.7329 148.777 27.4682 155.077 19.8114 155.077C12.1545 155.077 5.88987 148.777 5.88987 141.077V140.538H0V141.077C0 152.062 8.88835 161 19.8114 161C30.7344 161 39.6228 152.062 39.6228 141.077V102.308C39.6228 91.3231 30.7344 82.3846 19.8114 82.3846ZM19.8114 116.308C12.1545 116.308 5.88987 110.008 5.88987 102.308C5.88987 94.6077 12.1545 88.3077 19.8114 88.3077C27.4682 88.3077 33.7329 94.6077 33.7329 102.308C33.7329 110.008 27.4682 116.308 19.8114 116.308Z" fill="white"/>
<path d="M96.5938 82.3846L82.4582 110.815L68.3225 82.3846H62.3255L82.4582 122.877L102.591 82.3846H96.5938Z" fill="white"/>
</svg>
