<svg width="60" height="55" viewBox="0 0 60 55" fill="none" xmlns="http://www.w3.org/2000/svg">
<g clip-path="url(#clip0_52705_25511)">
<path d="M57.6818 23.6187L59.3429 21.6689L58.0103 20.5836L56.5865 22.2575L54.1223 19.0937C55.2175 18.2659 56.3127 17.4014 56.3127 15.8194C56.3127 14.2927 55.035 13.0786 53.3921 13.0786C51.658 13.0786 50.3985 14.3111 50.3985 16.0218C50.3985 17.0703 51.0192 17.9348 51.585 18.689L51.6033 18.7258C50.0152 19.7927 48.3724 20.8779 48.3724 23.1405C48.3724 25.2007 50.143 26.8746 52.3152 26.8746C53.9398 26.8746 55.2905 25.8997 56.404 24.9064L57.7183 26.6539H60L57.6818 23.6187ZM50.143 23.0301C50.143 21.8161 51.22 21.0619 52.1874 20.3997L52.6803 20.0686L55.3453 23.5084C54.4874 24.2626 53.4104 25.1823 52.2422 25.1823C51.1287 25.1823 50.143 24.1522 50.143 23.0301ZM52.8993 17.4381C52.8445 17.3646 52.7898 17.291 52.735 17.2174C52.4247 16.7943 52.1509 16.3897 52.1509 15.893C52.1509 15.194 52.6985 14.6422 53.3921 14.6422C54.0858 14.6422 54.6151 15.1388 54.6151 15.7826C54.6151 16.592 54.0128 17.0519 53.3739 17.5301C53.2826 17.5853 53.2096 17.6589 53.1183 17.7141L52.8993 17.4381Z" fill="#6750A4"/>
<path d="M29.0234 13.2441H27.0155V26.8562H29.0234V13.2441Z" fill="#6750A4"/>
<path d="M18.4363 28.1438H16.4284V41.7558H18.4363V28.1438Z" fill="#6750A4"/>
<path d="M17.341 26.8562C21.0648 26.8562 24.0949 23.8027 24.0949 20.0502C24.0949 16.2977 21.0648 13.2441 17.341 13.2441C15.5522 13.2441 13.8546 13.9615 12.5951 15.2124V0H10.5872V20.0502C10.5872 23.8027 13.6173 26.8562 17.341 26.8562ZM17.341 15.2676C19.9513 15.2676 22.087 17.4197 22.087 20.0502C22.087 22.6806 19.9513 24.8328 17.341 24.8328C14.7308 24.8328 12.5951 22.6806 12.5951 20.0502C12.5951 17.4197 14.7308 15.2676 17.341 15.2676Z" fill="#6750A4"/>
<path d="M38.6979 26.8562C42.4217 26.8562 45.4518 23.8027 45.4518 20.0502V0H43.4439V15.2124C42.1844 13.9615 40.4868 13.2441 38.6979 13.2441C34.9741 13.2441 31.944 16.2977 31.944 20.0502C31.944 23.8027 34.9741 26.8562 38.6979 26.8562ZM38.6979 15.2676C41.3082 15.2676 43.4439 17.4197 43.4439 20.0502C43.4439 22.6806 41.3082 24.8328 38.6979 24.8328C36.0876 24.8328 33.9519 22.6806 33.9519 20.0502C33.9519 17.4197 36.0876 15.2676 38.6979 15.2676Z" fill="#6750A4"/>
<path d="M41.2534 28.1438C37.5297 28.1438 34.4995 31.1973 34.4995 34.9498C34.4995 38.7023 37.5297 41.7558 41.2534 41.7558C44.3383 41.7558 47.0216 39.6588 47.7883 36.6421L47.843 36.4214H45.7621L45.7256 36.5502C45.0684 38.4448 43.2613 39.7324 41.2534 39.7324C38.6979 39.7324 36.5987 37.6906 36.5075 35.1338H48.0073V34.9498C48.0073 31.1973 44.9772 28.1438 41.2534 28.1438ZM36.8725 33.1104C37.6027 31.3445 39.3368 30.1672 41.2534 30.1672C43.1701 30.1672 44.9042 31.3445 45.6343 33.1104H36.8725Z" fill="#6750A4"/>
<path d="M6.75388 28.1438C3.03012 28.1438 0 31.1973 0 34.9498C0 38.7023 3.03012 41.7558 6.75388 41.7558C8.54274 41.7558 10.2403 41.0384 11.4998 39.7876V48.194C11.4998 50.8244 9.36416 52.9766 6.75388 52.9766C4.1436 52.9766 2.00791 50.8244 2.00791 48.194V48.01H0V48.194C0 51.9465 3.03012 55 6.75388 55C10.4776 55 13.5078 51.9465 13.5078 48.194V34.9498C13.5078 31.1973 10.4776 28.1438 6.75388 28.1438ZM6.75388 39.7324C4.1436 39.7324 2.00791 37.5803 2.00791 34.9498C2.00791 32.3194 4.1436 30.1672 6.75388 30.1672C9.36416 30.1672 11.4998 32.3194 11.4998 34.9498C11.4998 37.5803 9.36416 39.7324 6.75388 39.7324Z" fill="#6750A4"/>
<path d="M32.9297 28.1438L28.1107 37.8562L23.2918 28.1438H21.2473L28.1107 41.9766L34.9741 28.1438H32.9297Z" fill="#6750A4"/>
</g>
<defs>
<clipPath id="clip0_52705_25511">
<rect width="60" height="55" fill="white"/>
</clipPath>
</defs>
</svg>
